<svg width="1920" height="1080" viewBox="0 0 1920 1080" fill="none" xmlns="http://www.w3.org/2000/svg">
    <g clip-path="url(#clip0_201_87527)">

    <path d="M309.5 927.5C205 965 58.5 907 -1 894V1080H1920V720.5C1920 720.5 1787.5 660 1659 720.5C1530.5 781 1201.5 927.5 1032 927.5C862.5 927.5 825.5 802 666.5 802C540 802 414 890 309.5 927.5Z" fill="#243746"/>
    <path d="M262.5 979C157.218 979 58.5 983.441 -1 979V1080H1920V957.186C1920 957.186 1806 936.518 1677.5 957.186C1549 977.854 1486.42 995.465 1317.5 1009.5C1149 1023.5 758.5 1065.5 581.5 1026.5C459.326 999.58 385 979 262.5 979Z" fill="#3E4F5C"/>
    </g>
    <defs>
        <clipPath id="clip0_201_87527">
         <rect width="1920" height="1080" fill="white"/>
        </clipPath>
    </defs>
</svg>
