<?xml version="1.0" standalone="no"?>
<!DOCTYPE svg PUBLIC "-//W3C//DTD SVG 20010904//EN"
 "http://www.w3.org/TR/2001/REC-SVG-20010904/DTD/svg10.dtd">
<svg version="1.0" xmlns="http://www.w3.org/2000/svg"
 width="200.000000pt" height="200.000000pt" viewBox="0 0 200.000000 200.000000"
 preserveAspectRatio="xMidYMid meet">
<metadata>
Created by potrace 1.11, written by Peter Selinger 2001-2013
</metadata>
<g transform="translate(0.000000,200.000000) scale(0.100000,-0.100000)"
fill="#000000" stroke="none">
<path d="M548 1632 c-26 -31 -57 -68 -70 -82 -13 -14 -66 -74 -118 -135 -52
-60 -105 -121 -117 -135 -12 -14 -32 -36 -43 -50 -12 -14 -47 -54 -78 -89 -96
-107 -110 -145 -70 -197 24 -31 233 -275 278 -324 8 -9 40 -45 70 -81 30 -35
67 -77 82 -94 15 -16 47 -53 70 -82 24 -29 46 -52 49 -53 4 0 7 94 7 208 l0
208 -30 34 c-17 19 -51 59 -77 89 -25 30 -63 73 -83 95 -21 23 -38 48 -38 56
0 8 17 33 38 56 20 22 48 54 62 70 14 16 48 56 77 89 l52 60 0 208 c0 114 -3
207 -7 207 -4 0 -28 -26 -54 -58z"/>
<path d="M645 1481 l1 -207 84 -117 c47 -64 87 -116 90 -116 3 0 39 46 81 102
l76 102 -69 95 c-38 52 -74 102 -81 110 -7 8 -45 61 -85 116 -40 56 -78 107
-85 112 -10 9 -13 -30 -12 -197z"/>
<path d="M1334 1668 c-11 -13 -108 -142 -214 -288 -287 -393 -339 -464 -409
-559 l-65 -86 -1 -213 c0 -116 2 -212 5 -212 3 1 95 125 205 276 110 152 267
369 350 482 l150 207 0 208 c0 114 0 207 -1 207 0 0 -10 -10 -20 -22z"/>
<path d="M1391 1483 l0 -207 51 -61 c29 -33 55 -62 58 -65 32 -30 120 -140
120 -151 0 -8 -17 -32 -38 -55 -20 -22 -59 -67 -87 -99 -27 -32 -62 -72 -76
-88 l-27 -31 0 -208 c-1 -114 3 -208 7 -208 5 0 15 10 24 23 8 12 23 31 34 42
10 11 77 87 148 170 72 82 140 161 152 175 12 14 31 36 43 50 12 14 47 54 78
89 101 113 111 143 70 197 -20 26 -188 223 -213 250 -5 6 -35 39 -65 74 -30
35 -59 68 -65 74 -5 6 -37 43 -70 81 -33 39 -64 75 -70 81 -5 6 -21 25 -35 42
-14 18 -28 32 -32 32 -4 0 -7 -93 -7 -207z"/>
<path d="M1105 864 c-38 -52 -70 -102 -70 -110 0 -15 307 -443 315 -439 3 2 5
95 5 208 l0 205 -85 116 c-46 64 -87 116 -90 116 -3 0 -36 -43 -75 -96z"/>
</g>
</svg>
